<?xml version="1.0" encoding="utf-8"?>
<svg id="master-artboard" viewBox="0 0 1400 980" version="1.1" xmlns="http://www.w3.org/2000/svg" x="0px" y="0px" style="enable-background:new 0 0 1400 980;" width="1400px" height="980px">





<path id="XMLID_841_" class="st0" d="M871.1,600.9H718.3H565.4c-3.1,0-5.5,2.5-5.5,5.5v6.6v179.5v6.6c0,3.1,2.5,5.5,5.5,5.5h126.2&#10;&#9;&#9;c0.7,2.3,2.8,4,5.3,4h42.7c2.5,0,4.6-1.7,5.3-4h126.2c3.1,0,5.5-2.5,5.5-5.5v-6.6V613v-6.6C876.6,603.3,874.2,600.9,871.1,600.9z" style="opacity: 0.15; fill: rgb(35, 35, 35);" transform="matrix(1, 0, 0, 1, 1.4210854715202004e-14, 7.105427357601002e-15)"/><g id="XMLID_543_" transform="matrix(1, 0, 0, 1, 2.842170943040401e-14, 1.4210854715202004e-14)">
			<g id="XMLID_544_">
				<path id="XMLID_546_" class="st2" d="M739.6,803.3h-42.7c-3.1,0-5.5-2.5-5.5-5.5v-10.6c0-3.1,2.5-5.5,5.5-5.5h42.7&#10;&#9;&#9;&#9;&#9;&#9;c3.1,0,5.5,2.5,5.5,5.5v10.6C745.2,800.8,742.7,803.3,739.6,803.3z" style="fill: rgb(35, 35, 35);"/>
			</g>
			<g id="XMLID_547_">
				<g id="XMLID_548_">
					<path id="XMLID_550_" class="st2" d="M871.1,799.3H718.3c-3.1,0-5.5-2.5-5.5-5.5V607.6c0-3.1,2.5-5.5,5.5-5.5h152.8&#10;&#9;&#9;&#9;&#9;&#9;&#9;c3.1,0,5.5,2.5,5.5,5.5v186.1C876.6,796.8,874.2,799.3,871.1,799.3z M723.8,788.2h141.8V613.2H723.8V788.2z" style="fill: rgb(35, 35, 35);"/>
				</g>
				<g id="XMLID_553_">
					<path id="XMLID_555_" class="st2" d="M718.3,799.3H565.4c-3.1,0-5.5-2.5-5.5-5.5V607.6c0-3.1,2.5-5.5,5.5-5.5h152.8&#10;&#9;&#9;&#9;&#9;&#9;&#9;c3.1,0,5.5,2.5,5.5,5.5v186.1C723.8,796.8,721.3,799.3,718.3,799.3z M571,788.2h141.8V613.2H571V788.2z" style="fill: rgb(35, 35, 35);"/>
				</g>
			</g>
			<g id="XMLID_558_">
				<g id="XMLID_559_">
					<path d="M 718.2999877929688 601 L 718.2999877929688 787.0999755859375 L 739.5999755859375 787.0999755859375 L 871.0999755859375 787.0999755859375 L 871.0999755859375 601 Z" id="XMLID_560_" class="st8" style="fill: rgb(0, 102, 102);"/>
					<path id="XMLID_561_" class="st2" d="M871.1,792.7H718.3c-3.1,0-5.5-2.5-5.5-5.5V601c0-3.1,2.5-5.5,5.5-5.5h152.8&#10;&#9;&#9;&#9;&#9;&#9;&#9;c3.1,0,5.5,2.5,5.5,5.5v186.1C876.6,790.2,874.2,792.7,871.1,792.7z M723.8,781.6h141.8V606.5H723.8V781.6z" style="fill: rgb(35, 35, 35);"/>
				</g>
				<g id="XMLID_564_">
					<path d="M 565.4000244140625 601 L 565.4000244140625 787.0999755859375 L 696.9000244140625 787.0999755859375 L 718.2999877929688 787.0999755859375 L 718.2999877929688 601 Z" id="XMLID_565_" class="st4" style="fill: rgb(16, 191, 174);"/>
					<path id="XMLID_566_" class="st2" d="M718.3,792.7H565.4c-3.1,0-5.5-2.5-5.5-5.5V601c0-3.1,2.5-5.5,5.5-5.5h152.8&#10;&#9;&#9;&#9;&#9;&#9;&#9;c3.1,0,5.5,2.5,5.5,5.5v186.1C723.8,790.2,721.3,792.7,718.3,792.7z M571,781.6h141.8V606.5H571V781.6z" style="fill: rgb(35, 35, 35);"/>
				</g>
			</g>
		</g><path d="M 578.9000244140625 609.2000122070312 L 578.9000244140625 778.9000244140625 L 698.7999877929688 778.9000244140625 L 718.2999877929688 778.9000244140625 L 718.2999877929688 609.2000122070312 Z" id="XMLID_571_" class="st5" style="fill: rgb(255, 255, 255);" transform="matrix(1, 0, 0, 1, 4.263256414560601e-14, 2.1316282072803006e-14)"/><path d="M 718.2999877929688 609.2000122070312 L 718.2999877929688 778.9000244140625 L 737.7000122070312 778.9000244140625 L 857.5999755859375 778.9000244140625 L 857.5999755859375 609.2000122070312 Z" id="XMLID_573_" class="st6" style="fill: rgb(229, 229, 229);" transform="matrix(1, 0, 0, 1, 4.263256414560601e-14, 2.1316282072803006e-14)"/><path d="M 817.2000122070312 609.2000122070312 L 718.2999877929688 609.2000122070312 L 718.2999877929688 778.9000244140625 L 737.7000122070312 778.9000244140625 L 857.5999755859375 778.9000244140625 L 857.5999755859375 649.5999755859375 Z" id="XMLID_575_" class="st6" style="fill: rgb(229, 229, 229);" transform="matrix(1, 0, 0, 1, 2.842170943040401e-14, 1.4210854715202004e-14)"/><path d="M 597.299988 624.400024 H 694.699989 V 635.100024 H 597.299988 V 624.400024 Z" id="XMLID_425_" class="st9" style="fill: rgb(175, 175, 175);" transform="matrix(1, 0, 0, 1, 2.842170943040401e-14, 1.4210854715202004e-14)"/><path d="M 597.299988 645.900024 H 694.699989 V 656.600024 H 597.299988 V 645.900024 Z" id="XMLID_426_" class="st9" style="fill: rgb(175, 175, 175);" transform="matrix(1, 0, 0, 1, 2.842170943040401e-14, 1.4210854715202004e-14)"/><path d="M 597.299988 667.400024 H 694.699989 V 678.100024 H 597.299988 V 667.400024 Z" id="XMLID_427_" class="st9" style="fill: rgb(175, 175, 175);" transform="matrix(1, 0, 0, 1, 2.842170943040401e-14, 1.4210854715202004e-14)"/><path d="M 597.299988 688.700012 H 694.699989 V 699.400012 H 597.299988 V 688.700012 Z" id="XMLID_429_" class="st9" style="fill: rgb(175, 175, 175);" transform="matrix(1, 0, 0, 1, 2.842170943040401e-14, 1.4210854715202004e-14)"/><path d="M 597.299988 731.700012 H 645.999989 V 742.400012 H 597.299988 V 731.700012 Z" id="XMLID_430_" class="st9" style="fill: rgb(175, 175, 175);" transform="matrix(1, 0, 0, 1, 2.842170943040401e-14, 1.4210854715202004e-14)"/><path d="M 597.299988 710.200012 H 694.699989 V 720.900012 H 597.299988 V 710.200012 Z" id="XMLID_428_" class="st9" style="fill: rgb(175, 175, 175);" transform="matrix(1, 0, 0, 1, 2.842170943040401e-14, 1.4210854715202004e-14)"/><path d="M 740 624.400024 H 826 V 635.100024 H 740 V 624.400024 Z" id="XMLID_433_" class="st9" style="fill: rgb(175, 175, 175);" transform="matrix(1, 0, 0, 1, 2.842170943040401e-14, 1.4210854715202004e-14)"/><path d="M 740 667.400024 H 788.700001 V 678.100024 H 740 V 667.400024 Z" id="XMLID_432_" class="st9" style="fill: rgb(175, 175, 175);" transform="matrix(1, 0, 0, 1, 2.842170943040401e-14, 1.4210854715202004e-14)"/><path d="M 740 645.900024 H 837.400002 V 656.600024 H 740 V 645.900024 Z" id="XMLID_431_" class="st9" style="fill: rgb(175, 175, 175);" transform="matrix(1, 0, 0, 1, 2.842170943040401e-14, 1.4210854715202004e-14)"/><path d="M 817.2000122070312 649.5999755859375 L 857.5999755859375 649.5999755859375 L 817.2000122070312 609.2000122070312 Z" id="XMLID_576_" class="st5" style="fill: rgb(255, 255, 255);" transform="matrix(1, 0, 0, 1, 2.842170943040401e-14, 1.4210854715202004e-14)"/>

</svg>