<svg xmlns="http://www.w3.org/2000/svg" viewBox="0 0 1400 980"><defs><style>.cls-1{isolation:isolate;}.cls-2{fill:#1fa49c;}.cls-3,.cls-5{fill:#e6e6e6;}.cls-3,.cls-6{mix-blend-mode:multiply;}.cls-4,.cls-6{fill:#f2f2f2;}.cls-7{fill:#fff;}.cls-8{font-size:12px;font-family:Quicksand-Bold, Quicksand;font-weight:700;}.cls-15,.cls-8{fill:#4d4d4d;}.cls-9{letter-spacing:-0.06em;}.cls-10{letter-spacing:-0.17em;}.cls-11{letter-spacing:-0.05em;}.cls-12{letter-spacing:-0.01em;}.cls-13{letter-spacing:0em;}.cls-14,.cls-44{fill:none;}.cls-14{stroke:#4d4d4d;stroke-linecap:round;stroke-linejoin:round;stroke-width:1.6px;}.cls-16{fill:#666;}.cls-17{fill:#e1f6fa;}.cls-18{fill:#c3edf5;}.cls-19{fill:#4d91bb;}.cls-20{fill:#dd6966;}.cls-21{fill:#add65c;}.cls-22{fill:#ffce47;}.cls-23{fill:#c9d0c5;}.cls-24{fill:#afb8a7;}.cls-25{fill:#314967;}.cls-26{fill:#5a6d85;}.cls-27{fill:#ffe7a3;}.cls-28{fill:#fdc399;}.cls-29{fill:#a5e4f1;}.cls-30{fill:#ffda75;}.cls-31{fill:#fca566;}.cls-32{fill:gray;}.cls-33{fill:#b3b3b3;}.cls-34{fill:#ccc;}.cls-35{fill:#7aaccc;}.cls-36{fill:#2175aa;}.cls-37{fill:#69d2e7;}.cls-38{fill:#ace2df;}.cls-39{fill:#7ad0cb;}.cls-40{fill:#4dbab4;}.cls-41{fill:#d3e3ee;}.cls-42{fill:#a6c8dd;}.cls-43{fill:#f69652;}.cls-44{stroke:#7aaccc;stroke-miterlimit:10;stroke-width:14px;}.cls-45{fill:#999;}</style></defs><title>Artboard 1</title><g class="cls-1"><g id="Layer_1" data-name="Layer 1"><rect class="cls-2" width="1400" height="980"/><polygon class="cls-3" points="134.05 191.57 134.05 221.3 134.05 223.57 134.05 452.05 134.05 469.3 489.06 469.3 489.06 452.05 489.06 223.57 489.06 221.3 489.06 191.57 489.06 189.3 134.05 189.3 134.05 191.57"/><polygon class="cls-3" points="940.8 189.3 940.8 191.57 940.8 221.3 940.8 223.57 940.8 452.05 940.8 469.3 1295.81 469.3 1295.81 452.05 1295.81 223.57 1295.81 221.3 1295.81 191.57 1295.81 189.3 940.8 189.3"/><polygon class="cls-3" points="537.25 191.57 537.25 221.3 537.25 223.57 537.25 452.05 537.25 469.3 892.25 469.3 892.25 452.05 892.25 223.57 892.25 221.3 892.25 191.57 892.25 189.3 537.25 189.3 537.25 191.57"/><polygon class="cls-3" points="940.8 568.28 940.8 598.01 940.8 600.28 940.8 776.23 940.8 828.76 940.8 846.01 964 846.01 1019.92 846.01 1067.78 846.01 1109.98 846.01 1187.61 846.01 1205.81 846.01 1220.78 846.01 1239.31 846.01 1254.28 846.01 1295.81 846.01 1295.81 828.76 1295.81 824.63 1295.81 742.09 1295.81 689.3 1295.81 606.95 1295.81 600.28 1295.81 598.01 1295.81 568.28 1295.81 566.01 940.8 566.01 940.8 568.28"/><polygon class="cls-3" points="537.25 568.28 537.25 598.01 537.25 600.28 537.25 828.76 537.25 846.01 892.25 846.01 892.25 828.76 892.25 600.28 892.25 598.01 892.25 568.28 892.25 566.01 537.25 566.01 537.25 568.28"/><polygon class="cls-3" points="134.05 568.28 134.05 598.01 134.05 600.28 134.05 828.76 134.05 846.01 489.06 846.01 489.06 828.76 489.06 600.28 489.06 598.01 489.06 568.28 489.06 566.01 134.05 566.01 134.05 568.28"/><rect class="cls-4" x="119.12" y="174.37" width="355" height="280"/><polygon class="cls-5" points="474.13 454.37 119.12 454.37 474.13 174.37 474.13 454.37"/><rect class="cls-6" x="167.48" y="300.63" width="270.53" height="39.63"/><rect class="cls-7" x="165.36" y="298.51" width="270.53" height="39.63"/><text class="cls-8" transform="translate(180.23 323.01)">h<tspan class="cls-9" x="7.36" y="0">t</tspan><tspan x="11.4" y="0">tp:</tspan><tspan class="cls-10" x="27" y="0">/</tspan><tspan class="cls-11" x="30.02" y="0">/</tspan><tspan class="cls-12" x="34.49" y="0">ww</tspan><tspan class="cls-13" x="54.91" y="0">w</tspan></text><polyline class="cls-14" points="413.88 313.39 418.83 318.33 413.88 323.27"/><line class="cls-14" x1="418.83" y1="318.33" x2="407.15" y2="318.33"/><rect class="cls-6" x="119.12" y="176.64" width="355" height="32"/><rect class="cls-15" x="119.12" y="174.37" width="355" height="32"/><rect class="cls-16" x="448.16" y="182.45" width="15.84" height="15.84"/><rect class="cls-16" x="397.73" y="182.45" width="15.84" height="15.84"/><rect class="cls-16" x="422.95" y="182.45" width="15.84" height="15.84"/><rect class="cls-17" x="925.87" y="174.37" width="355" height="280"/><polygon class="cls-18" points="1280.88 454.37 925.87 454.37 1280.88 174.37 1280.88 454.37"/><rect class="cls-6" x="925.87" y="176.64" width="355" height="32"/><rect class="cls-15" x="925.87" y="174.37" width="355" height="32"/><path class="cls-19" d="M1066.47,352.63a8.09,8.09,0,0,1-5.65,13.88,8.58,8.58,0,0,1-5.91-2.31l-36.1-36.62c-.39-.13-.51-.39-.64-.77a1.87,1.87,0,0,0-.39-.26,3.37,3.37,0,0,1-.39-1,.69.69,0,0,1-.39-.51c-.13-.26-.13-.64-.26-.77,0-.39-.26-.51-.26-.64v-.9c0-.26-.13-.39-.13-.77,0-.13.13-.51.13-.64v-.9c0-.26.26-.39.26-.51.13-.39.13-.64.26-1,0-.13.13-.13.13-.26a9.35,9.35,0,0,1,.64-1.16.25.25,0,0,1,.26-.26,2.4,2.4,0,0,1,.77-.9l36.1-36.62a8.38,8.38,0,0,1,11.56,0,8.14,8.14,0,0,1,0,11.56L1036,321.92Z"/><path class="cls-19" d="M1082.34,356.74l31.48-74.9a7.13,7.13,0,0,1,9.38-3.73,6.93,6.93,0,0,1,3.6,9.12l-31.48,75a7.12,7.12,0,0,1-6.55,4.24,6.14,6.14,0,0,1-2.57-.51A6.94,6.94,0,0,1,1082.34,356.74Z"/><path class="cls-19" d="M1189,326.54a.13.13,0,0,1-.13.13,6,6,0,0,1-.9.9l-36.1,36.62a8.38,8.38,0,0,1-11.56,0,8.14,8.14,0,0,1,0-11.56l30.45-30.71-30.45-30.71a8.14,8.14,0,0,1,0-11.56,8.38,8.38,0,0,1,11.56,0l36.1,36.62a5.93,5.93,0,0,1,.9.9c.13,0,.13.26.13.26a11.52,11.52,0,0,1,.64,1.16c0,.13.13.13.13.26a6.08,6.08,0,0,0,.39,1.16c0,.13.13.13.13.39v.9c0,.13.13.51.13.64s-.13.51-.13.64v1c0,.13-.13.13-.13.26a12.08,12.08,0,0,0-.39,1.16c0,.13-.13.13-.13.39S1189.24,326,1189,326.54Z"/><rect class="cls-20" x="1254.92" y="182.45" width="15.84" height="15.84"/><rect class="cls-21" x="1204.48" y="182.45" width="15.84" height="15.84"/><rect class="cls-22" x="1229.7" y="182.45" width="15.84" height="15.84"/><rect class="cls-23" x="522.31" y="174.37" width="355" height="280"/><polygon class="cls-24" points="877.32 454.37 522.31 454.37 877.32 174.37 877.32 454.37"/><rect class="cls-6" x="522.31" y="176.64" width="355" height="32"/><rect class="cls-25" x="522.31" y="174.37" width="355" height="32"/><rect class="cls-26" x="851.36" y="182.45" width="15.84" height="15.84" rx="7.92" ry="7.92"/><rect class="cls-26" x="800.92" y="182.45" width="15.84" height="15.84" rx="7.92" ry="7.92"/><rect class="cls-26" x="826.14" y="182.45" width="15.84" height="15.84" rx="7.92" ry="7.92"/><polygon class="cls-3" points="565.18 234.06 565.18 275.01 565.18 282.88 644.59 282.88 644.59 275.01 644.59 234.06 644.59 231.57 565.18 231.57 565.18 234.06"/><polygon class="cls-3" points="661.15 234.06 661.15 275.01 661.15 282.88 740.55 282.88 740.55 275.01 740.55 234.06 740.55 231.57 661.15 231.57 661.15 234.06"/><polygon class="cls-3" points="757.12 231.57 757.12 234.06 757.12 275.01 757.12 282.88 836.52 282.88 836.52 275.01 836.52 234.06 836.52 231.57 757.12 231.57"/><polygon class="cls-3" points="565.18 298.1 565.18 339.05 565.18 346.91 644.59 346.91 644.59 339.05 644.59 298.1 644.59 295.61 565.18 295.61 565.18 298.1"/><polygon class="cls-3" points="661.15 298.1 661.15 339.05 661.15 346.91 740.55 346.91 740.55 339.05 740.55 298.1 740.55 295.61 661.15 295.61 661.15 298.1"/><polygon class="cls-3" points="757.12 298.1 757.12 339.05 757.12 346.91 836.52 346.91 836.52 339.05 836.52 298.1 836.52 295.61 757.12 295.61 757.12 298.1"/><polygon class="cls-3" points="565.18 362.14 565.18 403.09 565.18 410.95 644.59 410.95 644.59 403.09 644.59 362.14 644.59 359.65 565.18 359.65 565.18 362.14"/><polygon class="cls-3" points="661.15 362.14 661.15 403.09 661.15 410.95 740.55 410.95 740.55 403.09 740.55 362.14 740.55 359.65 661.15 359.65 661.15 362.14"/><polygon class="cls-3" points="757.12 362.14 757.12 403.09 757.12 410.95 836.52 410.95 836.52 403.09 836.52 362.14 836.52 359.65 757.12 359.65 757.12 362.14"/><rect class="cls-7" x="563.48" y="229.94" width="79.4" height="51.3"/><rect class="cls-7" x="659.45" y="229.94" width="79.4" height="51.3"/><rect class="cls-7" x="755.41" y="229.94" width="79.4" height="51.3"/><rect class="cls-18" x="563.48" y="229.94" width="79.4" height="2.48"/><rect class="cls-27" x="659.45" y="229.94" width="79.4" height="2.48"/><rect class="cls-28" x="755.41" y="229.94" width="79.4" height="2.48"/><rect class="cls-29" x="563.48" y="273.38" width="79.4" height="7.86"/><rect class="cls-30" x="659.45" y="273.38" width="79.4" height="7.86"/><rect class="cls-31" x="755.41" y="273.38" width="79.4" height="7.86"/><rect class="cls-7" x="563.48" y="293.98" width="79.4" height="51.3"/><rect class="cls-7" x="659.45" y="293.98" width="79.4" height="51.3"/><rect class="cls-7" x="755.41" y="293.98" width="79.4" height="51.3"/><rect class="cls-27" x="563.48" y="293.98" width="79.4" height="2.48"/><rect class="cls-28" x="659.45" y="293.98" width="79.4" height="2.48"/><rect class="cls-18" x="755.41" y="293.98" width="79.4" height="2.48"/><rect class="cls-30" x="563.48" y="337.42" width="79.4" height="7.86"/><rect class="cls-31" x="659.45" y="337.42" width="79.4" height="7.86"/><rect class="cls-29" x="755.41" y="337.42" width="79.4" height="7.86"/><rect class="cls-7" x="563.48" y="358.02" width="79.4" height="51.3"/><rect class="cls-7" x="659.45" y="358.02" width="79.4" height="51.3"/><rect class="cls-7" x="755.41" y="358.02" width="79.4" height="51.3"/><rect class="cls-28" x="563.48" y="358.02" width="79.4" height="2.48"/><rect class="cls-18" x="659.45" y="358.02" width="79.4" height="2.48"/><rect class="cls-27" x="755.41" y="358.02" width="79.4" height="2.48"/><rect class="cls-31" x="563.48" y="401.46" width="79.4" height="7.86"/><rect class="cls-29" x="659.45" y="401.46" width="79.4" height="7.86"/><rect class="cls-30" x="755.41" y="401.46" width="79.4" height="7.86"/><rect class="cls-32" x="925.87" y="551.08" width="355" height="280"/><polygon class="cls-16" points="1280.88 831.08 925.87 831.08 1280.88 551.08 1280.88 831.08"/><rect class="cls-6" x="925.87" y="553.35" width="355" height="32"/><rect class="cls-15" x="925.87" y="551.08" width="355" height="32"/><rect class="cls-33" x="1254.92" y="559.16" width="15.84" height="15.84" rx="7.92" ry="7.92"/><rect class="cls-5" x="1204.48" y="559.16" width="15.84" height="15.84" rx="7.92" ry="7.92"/><rect class="cls-34" x="1229.7" y="559.16" width="15.84" height="15.84" rx="7.92" ry="7.92"/><rect class="cls-35" x="522.31" y="551.08" width="355" height="280" transform="translate(1399.63 1382.16) rotate(-180)"/><polygon class="cls-19" points="522.31 831.08 877.32 831.08 877.32 551.08 522.31 831.08"/><rect class="cls-6" x="522.31" y="553.35" width="355" height="32" transform="translate(1399.63 1138.7) rotate(-180)"/><rect class="cls-25" x="522.31" y="551.08" width="355" height="32" transform="translate(1399.63 1134.16) rotate(-180)"/><rect class="cls-36" x="532.44" y="559.16" width="15.84" height="15.84" transform="translate(1080.72 1134.16) rotate(-180)"/><rect class="cls-37" x="582.87" y="559.16" width="15.84" height="15.84" transform="translate(1181.58 1134.16) rotate(-180)"/><rect class="cls-2" x="557.65" y="559.16" width="15.84" height="15.84" transform="translate(1131.15 1134.16) rotate(-180)"/><path class="cls-38" d="M699.82,785.37a76.34,76.34,0,0,1,0-152.69Z"/><path class="cls-39" d="M699.82,785.37V709H623.47A76.34,76.34,0,0,0,699.82,785.37Z"/><path class="cls-40" d="M699.82,632.68a76.34,76.34,0,1,1,0,152.69Z"/><path class="cls-2" d="M699.82,785.37A76.34,76.34,0,0,0,776.16,709H699.82Z"/><path class="cls-39" d="M700,785.37c-24.2,0-43.82-34.18-43.82-76.34s19.62-76.34,43.82-76.34Z"/><path class="cls-40" d="M700,785.37V709H656.14C656.14,751.19,675.76,785.37,700,785.37Z"/><path class="cls-38" d="M700,632.68c24.2,0,43.82,34.18,43.82,76.34S724.16,785.37,700,785.37Z"/><path class="cls-39" d="M700,785.37c24.2,0,43.82-34.18,43.82-76.34H700Z"/><rect class="cls-41" x="119.12" y="551.08" width="355" height="280"/><polygon class="cls-42" points="474.13 831.08 119.12 831.08 474.13 551.08 474.13 831.08"/><rect class="cls-6" x="119.12" y="553.35" width="355" height="32"/><rect class="cls-15" x="119.12" y="551.08" width="355" height="32"/><rect class="cls-20" x="448.16" y="559.16" width="15.84" height="15.84" rx="7.92" ry="7.92"/><rect class="cls-22" x="397.73" y="559.16" width="15.84" height="15.84" rx="7.92" ry="7.92"/><rect class="cls-43" x="422.95" y="559.16" width="15.84" height="15.84" rx="7.92" ry="7.92"/><circle class="cls-44" cx="296.62" cy="691.08" r="76.5"/><polygon class="cls-45" points="184.29 710.09 214.54 710.09 214.54 715.34 209.12 715.34 209.12 720.18 232.72 720.18 232.72 715.34 227.31 715.34 227.31 710.09 257.55 710.09 257.55 665.72 184.29 665.72 184.29 710.09"/><rect class="cls-34" x="212.95" y="699.83" width="12.77" height="16.06"/><rect class="cls-5" x="182.7" y="664.13" width="73.26" height="44.37"/><rect class="cls-15" x="201.44" y="654.91" width="35.79" height="62.81" transform="translate(905.65 466.98) rotate(90)"/><rect class="cls-5" x="207.53" y="713.76" width="23.6" height="4.84"/><rect class="cls-45" x="351.55" y="658.44" width="44.54" height="66.68"/><rect class="cls-5" x="350.15" y="657.04" width="44.54" height="66.68"/><rect class="cls-15" x="352.5" y="664.88" width="39.83" height="49.56"/><circle class="cls-33" cx="372.42" cy="719.36" r="2.81"/><rect class="cls-33" x="362.94" y="660.47" width="18.95" height="1.74"/><path class="cls-45" d="M297.48,663.42h-.12a26.25,26.25,0,0,0-25.69,31.51q.26,1.28.65,2.51.19.62.41,1.22a26.11,26.11,0,0,0,2.21,4.58q.66,1.08,1.41,2.09a26.37,26.37,0,0,0,3.38,3.72q.47.42,1,.82,1,.8,2,1.51a26.1,26.1,0,0,0,14.66,4.48h.12A26.1,26.1,0,0,0,312,711.38q1-.71,2-1.51.49-.4,1-.82a26.37,26.37,0,0,0,3.38-3.72q.75-1,1.41-2.09a26.11,26.11,0,0,0,2.21-4.58q.22-.6.41-1.22.38-1.23.65-2.51a26.24,26.24,0,0,0-25.57-31.5Z"/><path class="cls-38" d="M295.89,714.39a26.22,26.22,0,0,1,0-52.44Z"/><path class="cls-39" d="M295.89,714.39V688.16H269.66A26.22,26.22,0,0,0,295.89,714.39Z"/><path class="cls-40" d="M295.89,661.94a26.22,26.22,0,0,1,0,52.44Z"/><path class="cls-2" d="M295.89,714.39a26.22,26.22,0,0,0,26.22-26.22H295.89Z"/><path class="cls-39" d="M295.94,714.39c-8.31,0-15-11.74-15-26.22s6.74-26.22,15-26.22Z"/><path class="cls-40" d="M295.94,714.39V688.16h-15C280.89,702.65,287.62,714.39,295.94,714.39Z"/><path class="cls-38" d="M295.94,661.94c8.31,0,15,11.74,15,26.22s-6.74,26.22-15,26.22Z"/><path class="cls-39" d="M295.94,714.39c8.31,0,15-11.74,15-26.22h-15Z"/><path class="cls-33" d="M925.87,831.08V761.3l5.84.64,14.87-8.59,17.16-38.91h26.61l17.16,38.91,14.87,8.59,42.28-4.6,13.3,23-25.12,34.31v16.39H1005c2-7.28,1.29-15.72-3.43-24.1a21.62,21.62,0,0,0-8.21-8.21c-25.15-14.15-50.75,7.48-44.28,32.31Zm265-2.75v2.75h15c0-6.79,7.3-11.88,14.48-7.84a6.91,6.91,0,0,1,2.63,2.63,10.57,10.57,0,0,1,1.43,5.21h15v-2.75l8-11-4.25-7.37-13.52,1.47-4.76-2.75-5.49-12.44h-8.51l-5.49,12.44-4.76,2.75L1187.1,810l-4.25,7.37Zm-18.2,2.75h-77.63l7-9.61v-7.2l-10.53-14.39,5.58-9.66,17.72,1.93,6.24-3.6,7.19-16.31h11.15l7.19,16.31,6.24,3.6,17.72-1.93,5.58,9.66-10.53,14.39v7.2Zm-28.54-20a9.06,9.06,0,0,0-3.44-3.44C1129,801,1117,813,1123.59,824.7a9.06,9.06,0,0,0,3.44,3.44C1138.77,834.75,1150.74,822.77,1144.14,811Zm-97.86-126.28,7.53-13,23.92,2.6,8.42-4.86,9.71-22h15.05l9.71,22,8.42,4.86,23.92-2.6,7.53,13-14.21,19.41v9.72l14.21,19.41-7.53,13-23.92-2.6-8.42,4.86-9.71,22h-15.05l-9.71-22-8.42-4.86-23.92,2.6-7.53-13,14.21-19.41v-9.72Zm43.23,33.49a12.23,12.23,0,0,0,4.65,4.65c15.83,8.91,32-7.25,23.09-23.09a12.23,12.23,0,0,0-4.65-4.65C1096.76,686.25,1080.6,702.41,1089.51,718.24Zm154.63-1.09c-15-26.63,10.16-53.79,36.74-42.79V592h-25.53l-17.16,38.91-14.87,8.59-42.28-4.6-13.3,23,25.12,34.31v17.18l-25.12,34.31,13.3,23,42.28-4.6,14.87,8.59,17.16,38.91h25.53V727.16c-8.16,3.8-18.38,3.92-28.53-1.79A21.62,21.62,0,0,1,1244.14,717.16Z"/><rect class="cls-15" x="119.12" y="437.12" width="355" height="17.25"/><rect class="cls-15" x="119.12" y="813.83" width="355" height="17.25"/><rect class="cls-25" x="522.31" y="813.83" width="355" height="17.25"/><rect class="cls-25" x="522.31" y="437.12" width="355" height="17.25"/><rect class="cls-15" x="925.87" y="437.12" width="355" height="17.25"/><rect class="cls-15" x="925.87" y="813.83" width="355" height="17.25"/></g></g></svg>